<svg width="40" height="40" viewBox="0 0 40 40" fill="none" xmlns="http://www.w3.org/2000/svg">
<rect width="40" height="40" rx="5" fill="white"/>
<path d="M12.2765 30V9.136H19.4125C20.8632 9.136 22.1645 9.296 23.3165 9.616C24.4685 9.91467 25.3858 10.4373 26.0685 11.184C26.7512 11.9307 27.0925 12.976 27.0925 14.32C27.0925 15.2373 26.8472 16.144 26.3565 17.04C25.8872 17.9147 25.2258 18.512 24.3725 18.832V18.96C25.4392 19.2373 26.3245 19.7813 27.0285 20.592C27.7538 21.3813 28.1165 22.4693 28.1165 23.856C28.1165 25.2853 27.7538 26.448 27.0285 27.344C26.3032 28.24 25.3325 28.912 24.1165 29.36C22.9005 29.7867 21.5352 30 20.0205 30H12.2765ZM16.9805 17.488H19.1885C20.3405 17.488 21.1725 17.264 21.6845 16.816C22.2178 16.368 22.4845 15.7707 22.4845 15.024C22.4845 14.2133 22.2178 13.6373 21.6845 13.296C21.1512 12.9547 20.3298 12.784 19.2205 12.784H16.9805V17.488ZM16.9805 26.352H19.6365C22.2178 26.352 23.5085 25.4133 23.5085 23.536C23.5085 22.6187 23.1885 21.968 22.5485 21.584C21.9085 21.1787 20.9378 20.976 19.6365 20.976H16.9805V26.352Z" fill="#222222"/>
</svg>
